<?xml version="1.0" encoding="UTF-8"?>
<svg xmlns="http://www.w3.org/2000/svg" xmlns:xlink="http://www.w3.org/1999/xlink" width="40px" height="40px" viewBox="0 0 40 40" version="1.1">
<g id="surface1">
<path style=" stroke:none;fill-rule:nonzero;fill:rgb(80.784315%,54.11765%,52.549022%);fill-opacity:1;" d="M 28.238281 7.679688 C 28.316406 7.738281 28.390625 7.796875 28.46875 7.855469 C 28.882812 8.175781 28.882812 8.175781 29.039062 8.320312 C 29.039062 8.371094 29.039062 8.425781 29.039062 8.480469 C 29.085938 8.5 29.136719 8.523438 29.183594 8.542969 C 29.5 8.714844 29.695312 9.003906 29.921875 9.28125 C 29.980469 9.355469 30.042969 9.433594 30.109375 9.511719 C 30.945312 10.558594 31.621094 11.730469 32.148438 12.960938 C 32.253906 13.148438 32.355469 13.226562 32.53125 13.34375 C 32.589844 13.386719 32.648438 13.425781 32.710938 13.46875 C 32.773438 13.511719 32.835938 13.554688 32.898438 13.601562 C 34.078125 14.429688 35.160156 15.363281 36.078125 16.480469 C 36.136719 16.546875 36.191406 16.613281 36.25 16.679688 C 38 18.859375 38.632812 22.167969 38.363281 24.902344 C 38.035156 27.679688 36.753906 30.367188 34.582031 32.179688 C 33.546875 32.988281 32.46875 33.664062 31.226562 34.109375 C 31.175781 34.128906 31.125 34.144531 31.074219 34.164062 C 29.960938 34.539062 28.914062 34.59375 27.753906 34.589844 C 27.589844 34.589844 27.421875 34.59375 27.253906 34.59375 C 26.800781 34.59375 26.351562 34.59375 25.898438 34.59375 C 25.421875 34.589844 24.949219 34.59375 24.472656 34.59375 C 23.675781 34.59375 22.878906 34.59375 22.082031 34.589844 C 21.164062 34.589844 20.242188 34.589844 19.324219 34.589844 C 18.535156 34.59375 17.742188 34.59375 16.949219 34.59375 C 16.476562 34.59375 16.007812 34.59375 15.535156 34.59375 C 15.089844 34.59375 14.648438 34.59375 14.203125 34.589844 C 14.042969 34.589844 13.878906 34.589844 13.71875 34.59375 C 10.453125 34.601562 7.8125 33.402344 5.441406 31.199219 C 5.386719 31.152344 5.332031 31.105469 5.277344 31.054688 C 3.109375 29.011719 2.042969 26.003906 1.679688 23.121094 C 1.667969 23.042969 1.660156 22.96875 1.648438 22.890625 C 1.621094 22.671875 1.609375 22.457031 1.601562 22.238281 C 1.597656 22.183594 1.59375 22.128906 1.59375 22.074219 C 1.441406 18.417969 2.796875 14.875 5.234375 12.183594 C 5.671875 11.734375 6.152344 11.347656 6.640625 10.960938 C 6.722656 10.894531 6.804688 10.828125 6.886719 10.757812 C 8.976562 9.085938 11.425781 8.503906 14.066406 8.515625 C 14.875 8.515625 15.355469 8.398438 15.976562 7.859375 C 19.367188 5.085938 24.804688 4.855469 28.238281 7.679688 Z M 28.238281 7.679688 "/>
<path style=" stroke:none;fill-rule:nonzero;fill:rgb(49.803922%,23.529412%,56.862748%);fill-opacity:1;" d="M 32.160156 13.121094 C 33.320312 13.789062 34.335938 14.652344 35.28125 15.601562 C 35.324219 15.644531 35.371094 15.691406 35.417969 15.734375 C 37.511719 17.839844 38.421875 20.898438 38.417969 23.824219 C 38.378906 26.9375 37.089844 29.746094 34.882812 31.914062 C 33.832031 32.878906 32.566406 33.628906 31.226562 34.109375 C 31.175781 34.128906 31.125 34.144531 31.074219 34.164062 C 30.902344 34.222656 30.730469 34.269531 30.558594 34.320312 C 30.460938 34.351562 30.460938 34.351562 30.355469 34.378906 C 29.335938 34.644531 28.292969 34.605469 27.246094 34.613281 C 27.089844 34.613281 27.089844 34.613281 26.925781 34.613281 C 26.425781 34.617188 25.925781 34.621094 25.429688 34.621094 C 24.859375 34.625 24.289062 34.628906 23.71875 34.636719 C 23.273438 34.640625 22.828125 34.644531 22.382812 34.644531 C 22.117188 34.644531 21.855469 34.648438 21.589844 34.652344 C 20.113281 34.675781 19 34.433594 17.679688 33.761719 C 17.546875 33.695312 17.414062 33.628906 17.285156 33.566406 C 15.773438 32.816406 14.4375 31.777344 13.171875 30.671875 C 13.082031 30.597656 12.996094 30.523438 12.90625 30.445312 C 10.972656 28.792969 9.761719 26.339844 9.359375 23.839844 C 9.359375 23.734375 9.359375 23.628906 9.359375 23.519531 C 9.65625 23.617188 9.667969 23.6875 9.808594 23.953125 C 10.425781 25.015625 11.398438 25.832031 12.558594 26.238281 C 12.796875 26.28125 13.027344 26.285156 13.265625 26.28125 C 13.332031 26.28125 13.398438 26.28125 13.46875 26.28125 C 13.691406 26.285156 13.914062 26.28125 14.136719 26.28125 C 14.296875 26.28125 14.457031 26.28125 14.617188 26.28125 C 15.054688 26.285156 15.488281 26.285156 15.921875 26.28125 C 16.378906 26.28125 16.835938 26.28125 17.289062 26.285156 C 18.054688 26.285156 18.820312 26.285156 19.585938 26.28125 C 20.46875 26.28125 21.355469 26.28125 22.238281 26.28125 C 22.996094 26.285156 23.757812 26.285156 24.515625 26.28125 C 24.96875 26.28125 25.421875 26.28125 25.878906 26.285156 C 26.304688 26.285156 26.730469 26.285156 27.15625 26.28125 C 27.3125 26.28125 27.46875 26.28125 27.625 26.28125 C 27.839844 26.285156 28.050781 26.28125 28.265625 26.28125 C 28.328125 26.28125 28.386719 26.28125 28.453125 26.28125 C 28.96875 26.273438 29.386719 26.113281 29.769531 25.761719 C 29.832031 25.683594 29.832031 25.683594 29.894531 25.605469 C 30.042969 25.421875 30.1875 25.253906 30.351562 25.089844 C 32.136719 23.292969 33.046875 20.714844 33.070312 18.21875 C 33.0625 16.609375 32.816406 14.945312 32.21875 13.441406 C 32.160156 13.28125 32.160156 13.28125 32.160156 13.121094 Z M 32.160156 13.121094 "/>
<path style=" stroke:none;fill-rule:nonzero;fill:rgb(99.607843%,99.215686%,99.215686%);fill-opacity:1;" d="M 23.398438 15.375 C 24.660156 16.277344 25.503906 17.46875 25.769531 19 C 25.78125 19.066406 25.789062 19.136719 25.800781 19.207031 C 25.871094 19.667969 25.980469 19.914062 26.320312 20.238281 C 26.824219 20.570312 27.378906 20.589844 27.964844 20.617188 C 28.753906 20.679688 29.558594 20.945312 30.105469 21.546875 C 30.695312 22.292969 30.800781 23.074219 30.71875 24 C 30.53125 24.894531 30.113281 25.632812 29.359375 26.160156 C 29.011719 26.335938 28.679688 26.34375 28.296875 26.34375 C 28.230469 26.34375 28.164062 26.34375 28.09375 26.34375 C 27.871094 26.347656 27.648438 26.347656 27.425781 26.347656 C 27.265625 26.347656 27.105469 26.347656 26.949219 26.351562 C 26.511719 26.351562 26.078125 26.355469 25.644531 26.355469 C 25.375 26.355469 25.101562 26.355469 24.828125 26.355469 C 23.980469 26.359375 23.128906 26.363281 22.277344 26.363281 C 21.296875 26.363281 20.316406 26.367188 19.335938 26.371094 C 18.578125 26.375 17.820312 26.378906 17.0625 26.378906 C 16.609375 26.378906 16.15625 26.378906 15.703125 26.382812 C 15.277344 26.386719 14.851562 26.386719 14.425781 26.386719 C 14.269531 26.386719 14.113281 26.386719 13.957031 26.390625 C 12.472656 26.40625 11.542969 25.972656 10.449219 24.941406 C 9.484375 23.945312 9.085938 22.714844 9.097656 21.347656 C 9.195312 20.015625 9.746094 18.722656 10.757812 17.824219 C 11.84375 16.984375 13.113281 16.578125 14.480469 16.71875 C 14.875 16.839844 15.230469 17.015625 15.597656 17.199219 C 16.203125 17.46875 16.925781 17.472656 17.550781 17.273438 C 18.167969 16.980469 18.574219 16.601562 18.996094 16.074219 C 20.164062 14.738281 21.90625 14.425781 23.398438 15.375 Z M 23.398438 15.375 "/>
<path style=" stroke:none;fill-rule:nonzero;fill:rgb(90.588236%,36.862746%,30.588236%);fill-opacity:1;" d="M 28.238281 7.679688 C 28.316406 7.738281 28.390625 7.796875 28.46875 7.855469 C 28.882812 8.175781 28.882812 8.175781 29.039062 8.320312 C 29.039062 8.371094 29.039062 8.425781 29.039062 8.480469 C 29.113281 8.511719 29.113281 8.511719 29.183594 8.542969 C 29.5 8.714844 29.695312 9.003906 29.921875 9.28125 C 29.980469 9.355469 30.042969 9.433594 30.109375 9.511719 C 30.617188 10.144531 31.046875 10.8125 31.441406 11.519531 C 31.46875 11.570312 31.496094 11.617188 31.523438 11.667969 C 33.015625 14.34375 33.644531 17.902344 32.800781 20.878906 C 32.363281 22.292969 31.613281 24.257812 30.320312 25.121094 C 30.34375 25.039062 30.34375 25.039062 30.371094 24.957031 C 30.402344 24.847656 30.402344 24.847656 30.433594 24.738281 C 30.457031 24.667969 30.476562 24.597656 30.5 24.527344 C 30.519531 24.457031 30.539062 24.390625 30.558594 24.320312 C 30.574219 24.269531 30.589844 24.222656 30.605469 24.171875 C 30.75 23.445312 30.726562 22.632812 30.320312 22 C 30.285156 21.945312 30.253906 21.886719 30.21875 21.828125 C 29.796875 21.199219 29.195312 20.945312 28.480469 20.761719 C 28.210938 20.714844 27.949219 20.699219 27.675781 20.683594 C 27.039062 20.648438 26.519531 20.546875 26.066406 20.074219 C 25.792969 19.742188 25.742188 19.417969 25.683594 18.996094 C 25.578125 18.359375 25.414062 17.859375 25.09375 17.300781 C 24.957031 17.039062 24.871094 16.785156 24.78125 16.503906 C 24.304688 15.058594 23.492188 13.691406 22.480469 12.558594 C 22.414062 12.480469 22.347656 12.40625 22.277344 12.324219 C 20.378906 10.132812 17.707031 9.003906 14.878906 8.640625 C 14.960938 8.480469 14.960938 8.480469 15.234375 8.351562 C 15.515625 8.214844 15.738281 8.058594 15.976562 7.859375 C 19.367188 5.085938 24.804688 4.855469 28.238281 7.679688 Z M 28.238281 7.679688 "/>
<path style=" stroke:none;fill-rule:nonzero;fill:rgb(59.215689%,14.117648%,47.058824%);fill-opacity:1;" d="M 16.398438 8.800781 C 16.464844 8.816406 16.527344 8.832031 16.59375 8.847656 C 19.601562 9.605469 22.117188 11.535156 23.746094 14.160156 C 24.019531 14.625 24.25 15.113281 24.480469 15.601562 C 24.527344 15.703125 24.578125 15.804688 24.625 15.90625 C 24.960938 16.613281 24.960938 16.613281 24.960938 16.800781 C 24.703125 16.6875 24.5625 16.570312 24.390625 16.351562 C 23.714844 15.554688 22.878906 14.992188 21.835938 14.859375 C 20.980469 14.8125 20.179688 15.160156 19.519531 15.679688 C 19.472656 15.71875 19.421875 15.757812 19.371094 15.796875 C 19.113281 16.003906 18.902344 16.226562 18.691406 16.480469 C 18.261719 16.984375 17.683594 17.394531 17.011719 17.46875 C 16.292969 17.484375 15.769531 17.355469 15.121094 17.039062 C 12.882812 16.046875 10.082031 15.691406 7.699219 16.332031 C 7.519531 16.378906 7.339844 16.421875 7.160156 16.460938 C 6.570312 16.597656 6.0625 16.785156 5.53125 17.066406 C 5.476562 17.09375 5.421875 17.121094 5.367188 17.152344 C 3.773438 18.027344 2.472656 19.503906 1.679688 21.121094 C 1.652344 21.121094 1.628906 21.121094 1.601562 21.121094 C 1.640625 18.914062 2.273438 16.636719 3.359375 14.71875 C 3.40625 14.632812 3.457031 14.546875 3.507812 14.457031 C 4.304688 13.082031 5.398438 11.941406 6.640625 10.960938 C 6.722656 10.894531 6.804688 10.828125 6.886719 10.757812 C 9.503906 8.664062 13.152344 8.007812 16.398438 8.800781 Z M 16.398438 8.800781 "/>
<path style=" stroke:none;fill-rule:nonzero;fill:rgb(62.7451%,14.117648%,39.607844%);fill-opacity:1;" d="M 22.769531 19.71875 C 22.828125 19.722656 22.882812 19.722656 22.941406 19.722656 C 23.683594 19.75 24.289062 19.96875 24.828125 20.492188 C 25.257812 20.96875 25.332031 21.339844 25.308594 21.988281 C 25.238281 22.582031 24.957031 22.941406 24.503906 23.316406 C 24.195312 23.523438 23.867188 23.640625 23.519531 23.761719 C 23.457031 23.789062 23.390625 23.820312 23.324219 23.847656 C 23.085938 23.929688 22.890625 23.933594 22.640625 23.921875 C 22.640625 24 22.644531 24.078125 22.644531 24.160156 C 22.648438 24.3125 22.648438 24.3125 22.648438 24.46875 C 22.652344 24.570312 22.652344 24.675781 22.65625 24.78125 C 22.640625 25.039062 22.640625 25.039062 22.480469 25.199219 C 22.234375 25.179688 22.234375 25.179688 22 25.121094 C 21.902344 24.921875 21.910156 24.792969 21.90625 24.570312 C 21.90625 24.488281 21.902344 24.410156 21.902344 24.324219 C 21.902344 24.238281 21.902344 24.152344 21.898438 24.058594 C 21.898438 23.875 21.894531 23.691406 21.890625 23.507812 C 21.886719 23.214844 21.886719 22.925781 21.882812 22.632812 C 21.878906 22.351562 21.875 22.070312 21.871094 21.789062 C 21.871094 21.703125 21.867188 21.617188 21.867188 21.523438 C 21.867188 21.445312 21.867188 21.363281 21.863281 21.277344 C 21.863281 21.207031 21.863281 21.136719 21.863281 21.0625 C 21.851562 20.859375 21.851562 20.859375 21.679688 20.640625 C 21.6875 20.316406 21.699219 20.144531 21.925781 19.90625 C 22.210938 19.726562 22.441406 19.710938 22.769531 19.71875 Z M 22.769531 19.71875 "/>
<path style=" stroke:none;fill-rule:nonzero;fill:rgb(62.7451%,14.117648%,39.607844%);fill-opacity:1;" d="M 20.320312 20.160156 C 20.53125 20.308594 20.53125 20.308594 20.640625 20.480469 C 20.679688 20.808594 20.667969 20.921875 20.480469 21.199219 C 20.261719 21.21875 20.058594 21.230469 19.839844 21.230469 C 19.261719 21.25 18.789062 21.3125 18.320312 21.679688 C 17.953125 22.097656 17.957031 22.488281 17.976562 23.03125 C 18.007812 23.367188 18.058594 23.554688 18.238281 23.839844 C 18.695312 24.207031 19.054688 24.214844 19.621094 24.203125 C 20 24.148438 20.214844 24.019531 20.5 23.777344 C 20.546875 23.746094 20.59375 23.714844 20.640625 23.679688 C 20.71875 23.707031 20.796875 23.734375 20.878906 23.761719 C 20.859375 24.015625 20.785156 24.097656 20.601562 24.285156 C 20.023438 24.726562 19.347656 24.800781 18.640625 24.71875 C 18.011719 24.566406 17.453125 24.226562 17.09375 23.679688 C 17.011719 23.519531 16.945312 23.363281 16.878906 23.199219 C 16.847656 23.125 16.8125 23.046875 16.78125 22.96875 C 16.617188 22.285156 16.703125 21.640625 17.058594 21.03125 C 17.402344 20.535156 17.851562 20.15625 18.390625 19.886719 C 19.09375 19.757812 19.683594 19.816406 20.320312 20.160156 Z M 20.320312 20.160156 "/>
<path style=" stroke:none;fill-rule:nonzero;fill:rgb(62.352943%,12.54902%,38.431373%);fill-opacity:1;" d="M 12.519531 19.792969 C 12.601562 19.792969 12.683594 19.792969 12.769531 19.792969 C 12.941406 19.792969 13.113281 19.792969 13.289062 19.792969 C 13.554688 19.796875 13.820312 19.792969 14.082031 19.789062 C 14.253906 19.789062 14.421875 19.789062 14.589844 19.789062 C 14.667969 19.789062 14.746094 19.789062 14.828125 19.785156 C 15.382812 19.792969 15.382812 19.792969 15.6875 20.039062 C 15.738281 20.105469 15.789062 20.171875 15.839844 20.238281 C 15.878906 20.28125 15.878906 20.28125 15.921875 20.320312 C 15.953125 20.617188 15.941406 20.765625 15.789062 21.023438 C 15.425781 21.359375 14.917969 21.289062 14.449219 21.285156 C 14.390625 21.285156 14.332031 21.285156 14.273438 21.285156 C 14.128906 21.28125 13.984375 21.28125 13.839844 21.28125 C 13.878906 21.398438 13.878906 21.398438 13.921875 21.519531 C 13.929688 21.753906 13.933594 21.984375 13.9375 22.21875 C 13.9375 22.285156 13.9375 22.355469 13.9375 22.425781 C 13.9375 22.570312 13.9375 22.714844 13.9375 22.859375 C 13.941406 23.078125 13.941406 23.300781 13.945312 23.523438 C 13.945312 23.660156 13.945312 23.800781 13.945312 23.941406 C 13.945312 24.007812 13.949219 24.074219 13.949219 24.144531 C 13.949219 24.605469 13.949219 24.605469 13.8125 24.78125 C 13.679688 24.878906 13.679688 24.878906 13.476562 24.863281 C 13.28125 24.800781 13.28125 24.800781 13.121094 24.640625 C 13.039062 23.925781 13.140625 23.179688 13.195312 22.464844 C 13.203125 22.375 13.207031 22.289062 13.214844 22.195312 C 13.269531 21.550781 13.269531 21.550781 13.359375 21.28125 C 13.238281 21.28125 13.238281 21.28125 13.117188 21.285156 C 13.011719 21.289062 12.902344 21.289062 12.796875 21.289062 C 12.636719 21.292969 12.636719 21.292969 12.476562 21.296875 C 12.058594 21.273438 11.722656 21.226562 11.398438 20.945312 C 11.238281 20.640625 11.265625 20.484375 11.359375 20.160156 C 11.640625 19.726562 12.054688 19.792969 12.519531 19.792969 Z M 12.519531 19.792969 "/>
<path style=" stroke:none;fill-rule:nonzero;fill:rgb(80.784315%,54.901963%,52.156866%);fill-opacity:1;" d="M 12.320312 5.761719 C 12.628906 6.03125 12.707031 6.304688 12.734375 6.703125 C 12.710938 6.996094 12.59375 7.148438 12.398438 7.359375 C 11.847656 7.777344 11.394531 7.804688 10.71875 7.761719 C 10.34375 7.6875 10.128906 7.5625 9.84375 7.304688 C 9.636719 6.96875 9.601562 6.796875 9.601562 6.398438 C 9.730469 6.023438 9.90625 5.816406 10.238281 5.601562 C 10.917969 5.277344 11.695312 5.367188 12.320312 5.761719 Z M 12.320312 5.761719 "/>
<path style=" stroke:none;fill-rule:nonzero;fill:rgb(91.764706%,41.176471%,29.411766%);fill-opacity:1;" d="M 33.605469 8.363281 C 33.882812 8.429688 33.996094 8.574219 34.160156 8.800781 C 34.492188 9.390625 34.488281 10.070312 34.308594 10.710938 C 34.171875 11.070312 34.007812 11.238281 33.679688 11.441406 C 33.34375 11.511719 33.234375 11.460938 32.945312 11.273438 C 32.613281 10.957031 32.496094 10.664062 32.457031 10.214844 C 32.441406 9.53125 32.484375 9.117188 32.894531 8.566406 C 33.152344 8.375 33.292969 8.339844 33.605469 8.363281 Z M 33.605469 8.363281 "/>
<path style=" stroke:none;fill-rule:nonzero;fill:rgb(98.431373%,96.862745%,97.647059%);fill-opacity:1;" d="M 22.558594 21.199219 C 23.332031 21.199219 23.957031 21.261719 24.558594 21.761719 C 24.765625 22.03125 24.761719 22.308594 24.71875 22.640625 C 24.464844 23.03125 24.132812 23.125 23.703125 23.242188 C 23.328125 23.296875 22.941406 23.28125 22.558594 23.28125 C 22.558594 22.59375 22.558594 21.90625 22.558594 21.199219 Z M 22.558594 21.199219 "/>
<path style=" stroke:none;fill-rule:nonzero;fill:rgb(95.294118%,57.647061%,26.274511%);fill-opacity:1;" d="M 33.679688 8.398438 C 33.625 8.835938 33.433594 9.246094 33.164062 9.589844 C 33.011719 9.800781 32.921875 10.019531 32.824219 10.261719 C 32.789062 10.347656 32.753906 10.433594 32.71875 10.519531 C 32.691406 10.585938 32.667969 10.652344 32.640625 10.71875 C 32.367188 10.3125 32.445312 9.835938 32.480469 9.359375 C 32.621094 8.707031 33.003906 8.332031 33.679688 8.398438 Z M 33.679688 8.398438 "/>
<path style=" stroke:none;fill-rule:nonzero;fill:rgb(88.235295%,26.274511%,32.549021%);fill-opacity:1;" d="M 34.238281 9.28125 C 34.445312 9.484375 34.421875 9.5625 34.425781 9.84375 C 34.414062 10.328125 34.363281 10.785156 34.054688 11.171875 C 33.84375 11.371094 33.699219 11.4375 33.410156 11.464844 C 33.339844 11.457031 33.269531 11.449219 33.199219 11.441406 C 33.171875 11.359375 33.148438 11.28125 33.121094 11.199219 C 33.21875 11.015625 33.21875 11.015625 33.359375 10.800781 C 33.5 10.539062 33.636719 10.28125 33.773438 10.019531 C 33.917969 9.761719 34.074219 9.523438 34.238281 9.28125 Z M 34.238281 9.28125 "/>
<path style=" stroke:none;fill-rule:nonzero;fill:rgb(93.725491%,50.588238%,27.843139%);fill-opacity:1;" d="M 33.679688 8.398438 C 33.757812 8.425781 33.839844 8.453125 33.921875 8.480469 C 33.828125 9.222656 33.449219 9.890625 33.042969 10.507812 C 32.9375 10.675781 32.863281 10.851562 32.800781 11.039062 C 32.746094 10.988281 32.695312 10.933594 32.640625 10.878906 C 32.671875 10.242188 32.972656 9.6875 33.359375 9.199219 C 33.480469 8.9375 33.582031 8.671875 33.679688 8.398438 Z M 33.679688 8.398438 "/>
<path style=" stroke:none;fill-rule:nonzero;fill:rgb(97.647059%,67.843139%,24.705882%);fill-opacity:1;" d="M 33.121094 8.398438 C 33.292969 8.429688 33.292969 8.429688 33.441406 8.480469 C 33.171875 9.03125 32.902344 9.570312 32.558594 10.078125 C 32.535156 10.078125 32.507812 10.078125 32.480469 10.078125 C 32.441406 9.46875 32.515625 9.050781 32.914062 8.558594 C 32.984375 8.507812 33.050781 8.453125 33.121094 8.398438 Z M 33.121094 8.398438 "/>
<path style=" stroke:none;fill-rule:nonzero;fill:rgb(89.803922%,33.333334%,30.980393%);fill-opacity:1;" d="M 34.160156 8.960938 C 34.210938 9.066406 34.265625 9.171875 34.320312 9.28125 C 34.273438 9.347656 34.226562 9.417969 34.179688 9.488281 C 34.007812 9.746094 33.859375 10.011719 33.714844 10.285156 C 33.265625 11.132812 33.265625 11.132812 33.039062 11.359375 C 33.011719 11.308594 32.988281 11.253906 32.960938 11.199219 C 33.164062 10.660156 33.429688 10.152344 33.761719 9.679688 C 33.847656 9.511719 33.929688 9.34375 34.011719 9.171875 C 34.078125 9.039062 34.078125 9.039062 34.160156 8.960938 Z M 34.160156 8.960938 "/>
<path style=" stroke:none;fill-rule:nonzero;fill:rgb(85.490197%,13.333334%,34.901962%);fill-opacity:1;" d="M 34.320312 10 C 34.445312 10.386719 34.335938 10.6875 34.160156 11.039062 C 34.007812 11.214844 33.875 11.3125 33.679688 11.441406 C 33.628906 11.441406 33.574219 11.441406 33.519531 11.441406 C 33.617188 11.03125 33.722656 10.800781 34 10.480469 C 34.109375 10.320312 34.214844 10.160156 34.320312 10 Z M 34.320312 10 "/>
<path style=" stroke:none;fill-rule:nonzero;fill:rgb(97.254902%,94.117647%,95.686275%);fill-opacity:1;" d="M 17.679688 20.640625 C 17.734375 20.667969 17.785156 20.691406 17.839844 20.71875 C 17.75 20.816406 17.75 20.816406 17.65625 20.914062 C 17.1875 21.484375 17.15625 22.171875 17.121094 22.878906 C 16.863281 22.496094 16.914062 22.089844 16.996094 21.644531 C 17.125 21.191406 17.328125 20.945312 17.679688 20.640625 Z M 17.679688 20.640625 "/>
<path style=" stroke:none;fill-rule:nonzero;fill:rgb(87.058824%,20%,33.725491%);fill-opacity:1;" d="M 34.320312 9.441406 C 34.347656 9.441406 34.371094 9.441406 34.398438 9.441406 C 34.464844 9.859375 34.390625 10.050781 34.140625 10.394531 C 34.089844 10.460938 34.039062 10.53125 33.984375 10.597656 C 33.792969 10.867188 33.660156 11.140625 33.519531 11.441406 C 33.46875 11.441406 33.414062 11.441406 33.359375 11.441406 C 33.480469 10.929688 33.480469 10.929688 33.671875 10.695312 C 33.859375 10.453125 33.976562 10.214844 34.101562 9.933594 C 34.140625 9.84375 34.183594 9.75 34.226562 9.652344 C 34.257812 9.582031 34.289062 9.511719 34.320312 9.441406 Z M 34.320312 9.441406 "/>
<path style=" stroke:none;fill-rule:nonzero;fill:rgb(65.882355%,20.784314%,44.313726%);fill-opacity:1;" d="M 17.679688 20.320312 C 17.734375 20.347656 17.785156 20.371094 17.839844 20.398438 C 17.683594 20.636719 17.535156 20.859375 17.351562 21.074219 C 17.164062 21.328125 17.113281 21.535156 17.039062 21.839844 C 16.960938 21.8125 16.882812 21.789062 16.800781 21.761719 C 16.882812 21.1875 17.25 20.699219 17.679688 20.320312 Z M 17.679688 20.320312 "/>
<path style=" stroke:none;fill-rule:nonzero;fill:rgb(96.470588%,62.352943%,25.490198%);fill-opacity:1;" d="M 33.441406 8.398438 C 33.519531 8.640625 33.519531 8.640625 33.460938 8.800781 C 33.425781 8.863281 33.394531 8.925781 33.359375 8.988281 C 33.304688 9.09375 33.304688 9.09375 33.25 9.203125 C 33.207031 9.28125 33.164062 9.359375 33.121094 9.441406 C 33.070312 9.535156 33.019531 9.628906 32.96875 9.722656 C 32.832031 9.976562 32.695312 10.226562 32.558594 10.480469 C 32.535156 10.480469 32.507812 10.480469 32.480469 10.480469 C 32.4375 10.09375 32.570312 9.894531 32.78125 9.574219 C 33.027344 9.191406 33.246094 8.8125 33.441406 8.398438 Z M 33.441406 8.398438 "/>
<path style=" stroke:none;fill-rule:nonzero;fill:rgb(79.607844%,52.941179%,67.058825%);fill-opacity:1;" d="M 21.921875 22.800781 C 21.945312 22.800781 21.972656 22.800781 22 22.800781 C 22 23.488281 22 24.171875 22 24.878906 C 22.132812 24.90625 22.265625 24.933594 22.398438 24.960938 C 22.425781 25.039062 22.453125 25.117188 22.480469 25.199219 C 22.246094 25.171875 22.246094 25.171875 22 25.121094 C 21.890625 24.898438 21.910156 24.71875 21.914062 24.472656 C 21.914062 24.375 21.914062 24.277344 21.914062 24.179688 C 21.914062 24.078125 21.914062 23.976562 21.914062 23.871094 C 21.914062 23.769531 21.914062 23.664062 21.917969 23.558594 C 21.917969 23.308594 21.917969 23.054688 21.921875 22.800781 Z M 21.921875 22.800781 "/>
<path style=" stroke:none;fill-rule:nonzero;fill:rgb(92.156863%,82.352942%,87.843138%);fill-opacity:1;" d="M 11.679688 20 C 11.761719 20.238281 11.761719 20.238281 11.753906 20.476562 C 11.761719 20.71875 11.792969 20.835938 11.921875 21.039062 C 11.609375 20.898438 11.609375 20.898438 11.519531 20.71875 C 11.5 20.394531 11.496094 20.277344 11.679688 20 Z M 11.679688 20 "/>
<path style=" stroke:none;fill-rule:nonzero;fill:rgb(79.215688%,51.764709%,66.274512%);fill-opacity:1;" d="M 13.121094 23.519531 C 13.144531 23.519531 13.171875 23.519531 13.199219 23.519531 C 13.199219 23.757812 13.199219 23.996094 13.199219 24.238281 C 13.253906 24.238281 13.304688 24.238281 13.359375 24.238281 C 13.386719 24.398438 13.414062 24.558594 13.441406 24.71875 C 13.335938 24.695312 13.230469 24.667969 13.121094 24.640625 C 13.121094 24.269531 13.121094 23.902344 13.121094 23.519531 Z M 13.121094 23.519531 "/>
<path style=" stroke:none;fill-rule:nonzero;fill:rgb(67.450982%,24.313726%,46.666667%);fill-opacity:1;" d="M 11.28125 20.320312 C 11.289062 20.371094 11.296875 20.421875 11.304688 20.476562 C 11.324219 20.53125 11.339844 20.582031 11.359375 20.640625 C 11.4375 20.667969 11.519531 20.691406 11.601562 20.71875 C 11.710938 20.851562 11.816406 20.984375 11.921875 21.121094 C 11.839844 21.160156 11.839844 21.160156 11.761719 21.199219 C 11.566406 21.074219 11.566406 21.074219 11.359375 20.878906 C 11.296875 20.578125 11.296875 20.578125 11.28125 20.320312 Z M 11.28125 20.320312 "/>
<path style=" stroke:none;fill-rule:nonzero;fill:rgb(95.686275%,89.803922%,92.941177%);fill-opacity:1;" d="M 17.679688 20.640625 C 17.734375 20.667969 17.785156 20.691406 17.839844 20.71875 C 17.742188 20.835938 17.640625 20.953125 17.542969 21.070312 C 17.449219 21.1875 17.363281 21.3125 17.28125 21.441406 C 17.226562 21.441406 17.175781 21.441406 17.121094 21.441406 C 17.230469 21.085938 17.410156 20.890625 17.679688 20.640625 Z M 17.679688 20.640625 "/>
<path style=" stroke:none;fill-rule:nonzero;fill:rgb(64.313728%,17.647059%,42.352942%);fill-opacity:1;" d="M 11.679688 19.839844 C 11.734375 19.867188 11.785156 19.894531 11.839844 19.921875 C 11.78125 19.988281 11.78125 19.988281 11.726562 20.054688 C 11.589844 20.253906 11.554688 20.402344 11.519531 20.640625 C 11.46875 20.640625 11.414062 20.640625 11.359375 20.640625 C 11.339844 20.421875 11.339844 20.421875 11.359375 20.160156 C 11.519531 19.96875 11.519531 19.96875 11.679688 19.839844 Z M 11.679688 19.839844 "/>
</g>
</svg>
