<?xml version="1.0" encoding="UTF-8"?>
<svg xmlns="http://www.w3.org/2000/svg" xmlns:xlink="http://www.w3.org/1999/xlink" width="20px" height="20px" viewBox="0 0 20 20" version="1.1">
<g id="surface1">
<path style=" stroke:none;fill-rule:nonzero;fill:rgb(80.784315%,54.11765%,52.549022%);fill-opacity:1;" d="M 14.121094 3.839844 C 14.15625 3.867188 14.195312 3.898438 14.234375 3.929688 C 14.441406 4.089844 14.441406 4.089844 14.519531 4.160156 C 14.519531 4.1875 14.519531 4.210938 14.519531 4.238281 C 14.542969 4.25 14.566406 4.261719 14.59375 4.273438 C 14.75 4.359375 14.847656 4.503906 14.960938 4.640625 C 14.992188 4.679688 15.023438 4.714844 15.054688 4.753906 C 15.472656 5.277344 15.808594 5.867188 16.074219 6.480469 C 16.128906 6.574219 16.179688 6.613281 16.265625 6.671875 C 16.296875 6.691406 16.324219 6.714844 16.355469 6.734375 C 16.386719 6.757812 16.417969 6.777344 16.449219 6.800781 C 17.039062 7.214844 17.578125 7.683594 18.039062 8.238281 C 18.066406 8.273438 18.097656 8.304688 18.125 8.339844 C 19 9.429688 19.316406 11.082031 19.179688 12.449219 C 19.019531 13.839844 18.375 15.183594 17.289062 16.089844 C 16.773438 16.496094 16.234375 16.832031 15.613281 17.054688 C 15.585938 17.0625 15.5625 17.074219 15.535156 17.082031 C 14.980469 17.269531 14.457031 17.296875 13.878906 17.296875 C 13.792969 17.296875 13.710938 17.296875 13.625 17.296875 C 13.402344 17.296875 13.175781 17.296875 12.949219 17.296875 C 12.710938 17.296875 12.472656 17.296875 12.238281 17.296875 C 11.839844 17.296875 11.441406 17.296875 11.039062 17.296875 C 10.582031 17.296875 10.121094 17.296875 9.664062 17.296875 C 9.265625 17.296875 8.871094 17.296875 8.476562 17.296875 C 8.238281 17.296875 8.003906 17.296875 7.765625 17.296875 C 7.546875 17.296875 7.324219 17.296875 7.101562 17.296875 C 7.019531 17.296875 6.941406 17.296875 6.859375 17.296875 C 5.226562 17.300781 3.90625 16.703125 2.71875 15.601562 C 2.691406 15.574219 2.667969 15.550781 2.640625 15.527344 C 1.554688 14.507812 1.023438 13.003906 0.839844 11.558594 C 0.835938 11.523438 0.828125 11.484375 0.824219 11.445312 C 0.8125 11.335938 0.804688 11.230469 0.800781 11.121094 C 0.796875 11.09375 0.796875 11.066406 0.796875 11.035156 C 0.722656 9.207031 1.398438 7.4375 2.617188 6.089844 C 2.835938 5.867188 3.074219 5.671875 3.320312 5.480469 C 3.359375 5.445312 3.402344 5.414062 3.445312 5.378906 C 4.488281 4.542969 5.710938 4.25 7.035156 4.257812 C 7.4375 4.257812 7.675781 4.199219 7.988281 3.929688 C 9.683594 2.542969 12.402344 2.425781 14.121094 3.839844 Z M 14.121094 3.839844 "/>
<path style=" stroke:none;fill-rule:nonzero;fill:rgb(49.803922%,23.529412%,56.862748%);fill-opacity:1;" d="M 16.078125 6.558594 C 16.660156 6.894531 17.167969 7.328125 17.640625 7.800781 C 17.664062 7.824219 17.683594 7.84375 17.707031 7.867188 C 18.753906 8.917969 19.210938 10.449219 19.210938 11.914062 C 19.1875 13.46875 18.542969 14.875 17.441406 15.957031 C 16.914062 16.441406 16.28125 16.8125 15.613281 17.054688 C 15.585938 17.0625 15.5625 17.074219 15.535156 17.082031 C 15.453125 17.109375 15.367188 17.136719 15.28125 17.160156 C 15.230469 17.175781 15.230469 17.175781 15.179688 17.191406 C 14.667969 17.320312 14.144531 17.304688 13.621094 17.304688 C 13.542969 17.304688 13.542969 17.304688 13.464844 17.308594 C 13.214844 17.308594 12.964844 17.308594 12.714844 17.3125 C 12.429688 17.3125 12.144531 17.3125 11.859375 17.316406 C 11.636719 17.320312 11.414062 17.324219 11.191406 17.324219 C 11.058594 17.324219 10.925781 17.324219 10.796875 17.324219 C 10.054688 17.339844 9.5 17.214844 8.839844 16.878906 C 8.773438 16.847656 8.707031 16.816406 8.640625 16.78125 C 7.886719 16.410156 7.21875 15.886719 6.585938 15.335938 C 6.542969 15.300781 6.496094 15.261719 6.453125 15.222656 C 5.488281 14.394531 4.882812 13.167969 4.679688 11.921875 C 4.679688 11.867188 4.679688 11.8125 4.679688 11.761719 C 4.828125 11.808594 4.832031 11.84375 4.90625 11.976562 C 5.214844 12.507812 5.699219 12.914062 6.28125 13.121094 C 6.398438 13.140625 6.511719 13.140625 6.632812 13.140625 C 6.664062 13.140625 6.699219 13.140625 6.734375 13.140625 C 6.84375 13.140625 6.957031 13.140625 7.070312 13.140625 C 7.148438 13.140625 7.230469 13.140625 7.308594 13.140625 C 7.527344 13.140625 7.746094 13.140625 7.960938 13.140625 C 8.191406 13.140625 8.417969 13.140625 8.644531 13.140625 C 9.027344 13.140625 9.410156 13.140625 9.792969 13.140625 C 10.234375 13.140625 10.675781 13.140625 11.117188 13.140625 C 11.5 13.140625 11.878906 13.140625 12.257812 13.140625 C 12.484375 13.140625 12.710938 13.140625 12.9375 13.140625 C 13.152344 13.140625 13.363281 13.140625 13.578125 13.140625 C 13.65625 13.140625 13.734375 13.140625 13.8125 13.140625 C 13.917969 13.140625 14.027344 13.140625 14.132812 13.140625 C 14.164062 13.140625 14.195312 13.140625 14.226562 13.140625 C 14.484375 13.136719 14.695312 13.058594 14.886719 12.882812 C 14.917969 12.84375 14.917969 12.84375 14.949219 12.800781 C 15.019531 12.710938 15.09375 12.625 15.175781 12.542969 C 16.066406 11.648438 16.523438 10.359375 16.535156 9.109375 C 16.53125 8.304688 16.40625 7.472656 16.109375 6.71875 C 16.078125 6.640625 16.078125 6.640625 16.078125 6.558594 Z M 16.078125 6.558594 "/>
<path style=" stroke:none;fill-rule:nonzero;fill:rgb(99.607843%,99.215686%,99.215686%);fill-opacity:1;" d="M 11.699219 7.6875 C 12.332031 8.140625 12.753906 8.734375 12.886719 9.5 C 12.890625 9.535156 12.894531 9.566406 12.898438 9.601562 C 12.9375 9.835938 12.988281 9.957031 13.160156 10.121094 C 13.410156 10.285156 13.6875 10.296875 13.980469 10.308594 C 14.378906 10.339844 14.78125 10.472656 15.050781 10.773438 C 15.347656 11.144531 15.402344 11.539062 15.359375 12 C 15.265625 12.449219 15.058594 12.816406 14.679688 13.078125 C 14.503906 13.167969 14.339844 13.171875 14.148438 13.171875 C 14.113281 13.171875 14.082031 13.171875 14.046875 13.171875 C 13.9375 13.171875 13.824219 13.171875 13.714844 13.171875 C 13.632812 13.175781 13.554688 13.175781 13.472656 13.175781 C 13.257812 13.175781 13.039062 13.175781 12.824219 13.175781 C 12.6875 13.175781 12.550781 13.179688 12.414062 13.179688 C 11.988281 13.179688 11.5625 13.179688 11.140625 13.179688 C 10.648438 13.183594 10.160156 13.183594 9.667969 13.1875 C 9.289062 13.1875 8.910156 13.1875 8.53125 13.191406 C 8.304688 13.191406 8.078125 13.191406 7.851562 13.191406 C 7.636719 13.195312 7.425781 13.195312 7.210938 13.191406 C 7.132812 13.191406 7.054688 13.195312 6.980469 13.195312 C 6.234375 13.203125 5.769531 12.988281 5.226562 12.46875 C 4.742188 11.972656 4.542969 11.359375 4.550781 10.675781 C 4.597656 10.007812 4.875 9.359375 5.378906 8.914062 C 5.921875 8.492188 6.554688 8.289062 7.238281 8.359375 C 7.4375 8.417969 7.617188 8.507812 7.800781 8.601562 C 8.101562 8.734375 8.464844 8.738281 8.777344 8.636719 C 9.082031 8.492188 9.289062 8.300781 9.496094 8.039062 C 10.082031 7.367188 10.953125 7.214844 11.699219 7.6875 Z M 11.699219 7.6875 "/>
<path style=" stroke:none;fill-rule:nonzero;fill:rgb(90.588236%,36.862746%,30.588236%);fill-opacity:1;" d="M 14.121094 3.839844 C 14.15625 3.867188 14.195312 3.898438 14.234375 3.929688 C 14.441406 4.089844 14.441406 4.089844 14.519531 4.160156 C 14.519531 4.1875 14.519531 4.210938 14.519531 4.238281 C 14.554688 4.253906 14.554688 4.253906 14.59375 4.273438 C 14.75 4.359375 14.847656 4.503906 14.960938 4.640625 C 14.992188 4.679688 15.023438 4.714844 15.054688 4.753906 C 15.308594 5.074219 15.523438 5.40625 15.71875 5.761719 C 15.734375 5.785156 15.746094 5.808594 15.761719 5.832031 C 16.507812 7.171875 16.820312 8.949219 16.398438 10.441406 C 16.183594 11.148438 15.804688 12.128906 15.160156 12.558594 C 15.171875 12.519531 15.171875 12.519531 15.183594 12.476562 C 15.199219 12.425781 15.199219 12.425781 15.21875 12.371094 C 15.226562 12.335938 15.238281 12.300781 15.25 12.261719 C 15.261719 12.230469 15.269531 12.195312 15.28125 12.160156 C 15.289062 12.136719 15.296875 12.109375 15.304688 12.085938 C 15.375 11.722656 15.363281 11.316406 15.160156 11 C 15.144531 10.972656 15.125 10.945312 15.109375 10.914062 C 14.898438 10.597656 14.597656 10.472656 14.242188 10.382812 C 14.105469 10.359375 13.972656 10.347656 13.835938 10.34375 C 13.519531 10.324219 13.257812 10.273438 13.035156 10.039062 C 12.894531 9.871094 12.871094 9.707031 12.84375 9.496094 C 12.789062 9.179688 12.707031 8.929688 12.546875 8.648438 C 12.480469 8.519531 12.433594 8.390625 12.390625 8.253906 C 12.152344 7.53125 11.746094 6.847656 11.238281 6.28125 C 11.207031 6.242188 11.171875 6.203125 11.140625 6.164062 C 10.191406 5.066406 8.851562 4.503906 7.441406 4.320312 C 7.480469 4.238281 7.480469 4.238281 7.617188 4.175781 C 7.757812 4.109375 7.867188 4.027344 7.988281 3.929688 C 9.683594 2.542969 12.402344 2.425781 14.121094 3.839844 Z M 14.121094 3.839844 "/>
<path style=" stroke:none;fill-rule:nonzero;fill:rgb(59.215689%,14.117648%,47.058824%);fill-opacity:1;" d="M 8.199219 4.398438 C 8.230469 4.40625 8.265625 4.414062 8.296875 4.421875 C 9.800781 4.804688 11.058594 5.765625 11.875 7.082031 C 12.011719 7.3125 12.125 7.554688 12.238281 7.800781 C 12.265625 7.851562 12.289062 7.902344 12.3125 7.953125 C 12.480469 8.308594 12.480469 8.308594 12.480469 8.398438 C 12.351562 8.34375 12.28125 8.285156 12.195312 8.175781 C 11.855469 7.777344 11.441406 7.496094 10.917969 7.429688 C 10.492188 7.40625 10.089844 7.582031 9.761719 7.839844 C 9.734375 7.859375 9.710938 7.878906 9.6875 7.898438 C 9.558594 8 9.449219 8.113281 9.34375 8.238281 C 9.128906 8.492188 8.839844 8.699219 8.507812 8.734375 C 8.144531 8.742188 7.886719 8.679688 7.558594 8.519531 C 6.441406 8.023438 5.039062 7.84375 3.851562 8.164062 C 3.761719 8.1875 3.671875 8.210938 3.578125 8.230469 C 3.285156 8.300781 3.03125 8.390625 2.765625 8.53125 C 2.738281 8.546875 2.710938 8.5625 2.683594 8.574219 C 1.886719 9.011719 1.234375 9.753906 0.839844 10.558594 C 0.828125 10.558594 0.8125 10.558594 0.800781 10.558594 C 0.820312 9.457031 1.136719 8.320312 1.679688 7.359375 C 1.703125 7.316406 1.726562 7.273438 1.753906 7.226562 C 2.152344 6.539062 2.699219 5.96875 3.320312 5.480469 C 3.359375 5.445312 3.402344 5.414062 3.445312 5.378906 C 4.75 4.332031 6.578125 4.003906 8.199219 4.398438 Z M 8.199219 4.398438 "/>
<path style=" stroke:none;fill-rule:nonzero;fill:rgb(62.7451%,14.117648%,39.607844%);fill-opacity:1;" d="M 11.386719 9.859375 C 11.414062 9.859375 11.441406 9.859375 11.46875 9.863281 C 11.84375 9.875 12.144531 9.984375 12.414062 10.246094 C 12.628906 10.484375 12.667969 10.667969 12.65625 10.992188 C 12.621094 11.289062 12.480469 11.472656 12.25 11.660156 C 12.097656 11.761719 11.933594 11.820312 11.761719 11.878906 C 11.726562 11.894531 11.695312 11.910156 11.664062 11.925781 C 11.542969 11.964844 11.445312 11.964844 11.320312 11.960938 C 11.320312 12 11.320312 12.039062 11.324219 12.078125 C 11.324219 12.15625 11.324219 12.15625 11.324219 12.234375 C 11.324219 12.285156 11.328125 12.335938 11.328125 12.390625 C 11.320312 12.519531 11.320312 12.519531 11.238281 12.601562 C 11.117188 12.589844 11.117188 12.589844 11 12.558594 C 10.949219 12.460938 10.953125 12.394531 10.953125 12.285156 C 10.953125 12.246094 10.953125 12.203125 10.953125 12.164062 C 10.949219 12.121094 10.949219 12.074219 10.949219 12.03125 C 10.949219 11.9375 10.949219 11.847656 10.945312 11.753906 C 10.945312 11.609375 10.941406 11.460938 10.941406 11.316406 C 10.9375 11.175781 10.9375 11.035156 10.933594 10.894531 C 10.933594 10.851562 10.933594 10.808594 10.933594 10.761719 C 10.933594 10.722656 10.933594 10.679688 10.933594 10.640625 C 10.933594 10.605469 10.929688 10.566406 10.929688 10.53125 C 10.925781 10.429688 10.925781 10.429688 10.839844 10.320312 C 10.84375 10.160156 10.851562 10.070312 10.964844 9.953125 C 11.105469 9.863281 11.222656 9.855469 11.386719 9.859375 Z M 11.386719 9.859375 "/>
<path style=" stroke:none;fill-rule:nonzero;fill:rgb(62.7451%,14.117648%,39.607844%);fill-opacity:1;" d="M 10.160156 10.078125 C 10.265625 10.15625 10.265625 10.15625 10.320312 10.238281 C 10.339844 10.40625 10.332031 10.460938 10.238281 10.601562 C 10.132812 10.609375 10.027344 10.613281 9.921875 10.613281 C 9.632812 10.625 9.394531 10.65625 9.160156 10.839844 C 8.976562 11.046875 8.976562 11.242188 8.988281 11.515625 C 9.003906 11.683594 9.03125 11.777344 9.121094 11.921875 C 9.347656 12.105469 9.527344 12.109375 9.8125 12.101562 C 10 12.074219 10.109375 12.011719 10.25 11.886719 C 10.273438 11.871094 10.296875 11.855469 10.320312 11.839844 C 10.359375 11.851562 10.398438 11.867188 10.441406 11.878906 C 10.429688 12.007812 10.390625 12.046875 10.300781 12.140625 C 10.011719 12.363281 9.671875 12.402344 9.320312 12.359375 C 9.003906 12.285156 8.726562 12.113281 8.546875 11.839844 C 8.507812 11.761719 8.472656 11.683594 8.441406 11.601562 C 8.421875 11.5625 8.40625 11.523438 8.390625 11.484375 C 8.308594 11.144531 8.351562 10.820312 8.527344 10.515625 C 8.699219 10.269531 8.925781 10.078125 9.195312 9.941406 C 9.546875 9.878906 9.84375 9.910156 10.160156 10.078125 Z M 10.160156 10.078125 "/>
<path style=" stroke:none;fill-rule:nonzero;fill:rgb(62.352943%,12.54902%,38.431373%);fill-opacity:1;" d="M 6.261719 9.898438 C 6.300781 9.898438 6.34375 9.898438 6.382812 9.898438 C 6.472656 9.894531 6.558594 9.894531 6.644531 9.898438 C 6.777344 9.898438 6.910156 9.894531 7.042969 9.894531 C 7.125 9.894531 7.210938 9.894531 7.292969 9.894531 C 7.335938 9.894531 7.375 9.894531 7.414062 9.894531 C 7.691406 9.898438 7.691406 9.898438 7.84375 10.019531 C 7.867188 10.050781 7.894531 10.085938 7.921875 10.121094 C 7.941406 10.140625 7.941406 10.140625 7.960938 10.160156 C 7.976562 10.308594 7.96875 10.382812 7.894531 10.511719 C 7.714844 10.679688 7.460938 10.644531 7.226562 10.640625 C 7.195312 10.640625 7.167969 10.640625 7.136719 10.640625 C 7.0625 10.640625 6.992188 10.640625 6.921875 10.640625 C 6.941406 10.699219 6.941406 10.699219 6.960938 10.761719 C 6.964844 10.875 6.96875 10.992188 6.96875 11.109375 C 6.96875 11.144531 6.96875 11.175781 6.96875 11.210938 C 6.96875 11.285156 6.96875 11.355469 6.96875 11.429688 C 6.96875 11.539062 6.972656 11.648438 6.972656 11.761719 C 6.972656 11.832031 6.972656 11.902344 6.972656 11.972656 C 6.972656 12.003906 6.972656 12.039062 6.976562 12.070312 C 6.972656 12.300781 6.972656 12.300781 6.90625 12.390625 C 6.839844 12.441406 6.839844 12.441406 6.738281 12.433594 C 6.640625 12.398438 6.640625 12.398438 6.558594 12.320312 C 6.519531 11.964844 6.570312 11.589844 6.597656 11.234375 C 6.601562 11.1875 6.605469 11.144531 6.609375 11.097656 C 6.636719 10.773438 6.636719 10.773438 6.679688 10.640625 C 6.621094 10.640625 6.621094 10.640625 6.558594 10.644531 C 6.503906 10.644531 6.453125 10.644531 6.398438 10.644531 C 6.320312 10.644531 6.320312 10.644531 6.238281 10.648438 C 6.027344 10.636719 5.859375 10.613281 5.699219 10.472656 C 5.621094 10.320312 5.632812 10.242188 5.679688 10.078125 C 5.820312 9.863281 6.027344 9.894531 6.261719 9.898438 Z M 6.261719 9.898438 "/>
<path style=" stroke:none;fill-rule:nonzero;fill:rgb(80.784315%,54.901963%,52.156866%);fill-opacity:1;" d="M 6.160156 2.878906 C 6.316406 3.015625 6.351562 3.152344 6.367188 3.351562 C 6.355469 3.496094 6.296875 3.574219 6.199219 3.679688 C 5.921875 3.890625 5.699219 3.902344 5.359375 3.878906 C 5.171875 3.84375 5.0625 3.78125 4.921875 3.652344 C 4.816406 3.484375 4.800781 3.398438 4.800781 3.199219 C 4.867188 3.011719 4.953125 2.910156 5.121094 2.800781 C 5.457031 2.636719 5.847656 2.683594 6.160156 2.878906 Z M 6.160156 2.878906 "/>
<path style=" stroke:none;fill-rule:nonzero;fill:rgb(91.764706%,41.176471%,29.411766%);fill-opacity:1;" d="M 16.804688 4.179688 C 16.941406 4.214844 16.996094 4.285156 17.078125 4.398438 C 17.246094 4.695312 17.246094 5.035156 17.15625 5.355469 C 17.085938 5.535156 17.003906 5.621094 16.839844 5.71875 C 16.671875 5.753906 16.617188 5.730469 16.472656 5.636719 C 16.304688 5.480469 16.246094 5.332031 16.230469 5.105469 C 16.21875 4.765625 16.242188 4.558594 16.449219 4.28125 C 16.578125 4.1875 16.644531 4.167969 16.804688 4.179688 Z M 16.804688 4.179688 "/>
<path style=" stroke:none;fill-rule:nonzero;fill:rgb(98.431373%,96.862745%,97.647059%);fill-opacity:1;" d="M 11.28125 10.601562 C 11.664062 10.601562 11.976562 10.628906 12.28125 10.878906 C 12.382812 11.015625 12.378906 11.152344 12.359375 11.320312 C 12.230469 11.515625 12.066406 11.5625 11.851562 11.621094 C 11.664062 11.648438 11.472656 11.640625 11.28125 11.640625 C 11.28125 11.296875 11.28125 10.953125 11.28125 10.601562 Z M 11.28125 10.601562 "/>
<path style=" stroke:none;fill-rule:nonzero;fill:rgb(95.294118%,57.647061%,26.274511%);fill-opacity:1;" d="M 16.839844 4.199219 C 16.8125 4.417969 16.71875 4.621094 16.582031 4.792969 C 16.503906 4.902344 16.460938 5.007812 16.414062 5.128906 C 16.394531 5.171875 16.378906 5.214844 16.359375 5.261719 C 16.347656 5.292969 16.332031 5.328125 16.320312 5.359375 C 16.183594 5.15625 16.222656 4.917969 16.238281 4.679688 C 16.3125 4.351562 16.503906 4.167969 16.839844 4.199219 Z M 16.839844 4.199219 "/>
<path style=" stroke:none;fill-rule:nonzero;fill:rgb(88.235295%,26.274511%,32.549021%);fill-opacity:1;" d="M 17.121094 4.640625 C 17.222656 4.742188 17.210938 4.78125 17.210938 4.921875 C 17.207031 5.164062 17.179688 5.390625 17.027344 5.585938 C 16.921875 5.6875 16.847656 5.71875 16.703125 5.734375 C 16.671875 5.726562 16.636719 5.722656 16.601562 5.71875 C 16.585938 5.679688 16.574219 5.640625 16.558594 5.601562 C 16.609375 5.507812 16.609375 5.507812 16.679688 5.398438 C 16.75 5.269531 16.820312 5.140625 16.886719 5.011719 C 16.960938 4.882812 17.035156 4.761719 17.121094 4.640625 Z M 17.121094 4.640625 "/>
<path style=" stroke:none;fill-rule:nonzero;fill:rgb(93.725491%,50.588238%,27.843139%);fill-opacity:1;" d="M 16.839844 4.199219 C 16.878906 4.214844 16.917969 4.226562 16.960938 4.238281 C 16.914062 4.609375 16.726562 4.945312 16.519531 5.253906 C 16.46875 5.339844 16.433594 5.425781 16.398438 5.519531 C 16.375 5.492188 16.347656 5.46875 16.320312 5.441406 C 16.335938 5.121094 16.484375 4.84375 16.679688 4.601562 C 16.738281 4.46875 16.789062 4.335938 16.839844 4.199219 Z M 16.839844 4.199219 "/>
<path style=" stroke:none;fill-rule:nonzero;fill:rgb(97.647059%,67.843139%,24.705882%);fill-opacity:1;" d="M 16.558594 4.199219 C 16.644531 4.214844 16.644531 4.214844 16.71875 4.238281 C 16.585938 4.515625 16.453125 4.785156 16.28125 5.039062 C 16.265625 5.039062 16.253906 5.039062 16.238281 5.039062 C 16.222656 4.734375 16.257812 4.523438 16.457031 4.28125 C 16.492188 4.253906 16.523438 4.226562 16.558594 4.199219 Z M 16.558594 4.199219 "/>
<path style=" stroke:none;fill-rule:nonzero;fill:rgb(89.803922%,33.333334%,30.980393%);fill-opacity:1;" d="M 17.078125 4.480469 C 17.105469 4.53125 17.132812 4.585938 17.160156 4.640625 C 17.136719 4.675781 17.113281 4.707031 17.089844 4.742188 C 17.003906 4.871094 16.929688 5.003906 16.859375 5.140625 C 16.632812 5.566406 16.632812 5.566406 16.519531 5.679688 C 16.507812 5.652344 16.492188 5.628906 16.480469 5.601562 C 16.582031 5.328125 16.714844 5.078125 16.878906 4.839844 C 16.925781 4.757812 16.964844 4.671875 17.007812 4.585938 C 17.039062 4.519531 17.039062 4.519531 17.078125 4.480469 Z M 17.078125 4.480469 "/>
<path style=" stroke:none;fill-rule:nonzero;fill:rgb(85.490197%,13.333334%,34.901962%);fill-opacity:1;" d="M 17.160156 5 C 17.222656 5.191406 17.167969 5.34375 17.078125 5.519531 C 17.003906 5.605469 16.9375 5.65625 16.839844 5.71875 C 16.8125 5.71875 16.789062 5.71875 16.761719 5.71875 C 16.808594 5.515625 16.859375 5.398438 17 5.238281 C 17.054688 5.160156 17.109375 5.082031 17.160156 5 Z M 17.160156 5 "/>
<path style=" stroke:none;fill-rule:nonzero;fill:rgb(97.254902%,94.117647%,95.686275%);fill-opacity:1;" d="M 8.839844 10.320312 C 8.867188 10.332031 8.894531 10.347656 8.921875 10.359375 C 8.875 10.410156 8.875 10.410156 8.828125 10.457031 C 8.59375 10.742188 8.578125 11.085938 8.558594 11.441406 C 8.433594 11.25 8.457031 11.042969 8.5 10.820312 C 8.5625 10.597656 8.664062 10.472656 8.839844 10.320312 Z M 8.839844 10.320312 "/>
<path style=" stroke:none;fill-rule:nonzero;fill:rgb(87.058824%,20%,33.725491%);fill-opacity:1;" d="M 17.160156 4.71875 C 17.171875 4.71875 17.1875 4.71875 17.199219 4.71875 C 17.230469 4.929688 17.195312 5.027344 17.070312 5.199219 C 17.042969 5.230469 17.019531 5.265625 16.992188 5.300781 C 16.894531 5.433594 16.828125 5.570312 16.761719 5.71875 C 16.734375 5.71875 16.707031 5.71875 16.679688 5.71875 C 16.738281 5.464844 16.738281 5.464844 16.835938 5.347656 C 16.929688 5.226562 16.988281 5.109375 17.050781 4.96875 C 17.070312 4.921875 17.089844 4.875 17.113281 4.828125 C 17.128906 4.792969 17.144531 4.757812 17.160156 4.71875 Z M 17.160156 4.71875 "/>
<path style=" stroke:none;fill-rule:nonzero;fill:rgb(65.882355%,20.784314%,44.313726%);fill-opacity:1;" d="M 8.839844 10.160156 C 8.867188 10.171875 8.894531 10.1875 8.921875 10.199219 C 8.84375 10.320312 8.769531 10.429688 8.675781 10.539062 C 8.582031 10.664062 8.554688 10.769531 8.519531 10.921875 C 8.480469 10.90625 8.441406 10.894531 8.398438 10.878906 C 8.441406 10.59375 8.625 10.351562 8.839844 10.160156 Z M 8.839844 10.160156 "/>
<path style=" stroke:none;fill-rule:nonzero;fill:rgb(96.470588%,62.352943%,25.490198%);fill-opacity:1;" d="M 16.71875 4.199219 C 16.761719 4.320312 16.761719 4.320312 16.730469 4.402344 C 16.714844 4.433594 16.695312 4.464844 16.679688 4.496094 C 16.652344 4.546875 16.652344 4.546875 16.625 4.601562 C 16.601562 4.640625 16.582031 4.679688 16.558594 4.71875 C 16.535156 4.765625 16.507812 4.816406 16.484375 4.863281 C 16.417969 4.988281 16.347656 5.113281 16.28125 5.238281 C 16.265625 5.238281 16.253906 5.238281 16.238281 5.238281 C 16.21875 5.046875 16.285156 4.945312 16.390625 4.789062 C 16.511719 4.597656 16.625 4.40625 16.71875 4.199219 Z M 16.71875 4.199219 "/>
<path style=" stroke:none;fill-rule:nonzero;fill:rgb(79.607844%,52.941179%,67.058825%);fill-opacity:1;" d="M 10.960938 11.398438 C 10.972656 11.398438 10.988281 11.398438 11 11.398438 C 11 11.742188 11 12.085938 11 12.441406 C 11.066406 12.453125 11.132812 12.464844 11.199219 12.480469 C 11.214844 12.519531 11.226562 12.558594 11.238281 12.601562 C 11.121094 12.585938 11.121094 12.585938 11 12.558594 C 10.945312 12.449219 10.957031 12.359375 10.957031 12.234375 C 10.957031 12.1875 10.957031 12.140625 10.957031 12.089844 C 10.957031 12.039062 10.957031 11.988281 10.957031 11.933594 C 10.957031 11.882812 10.957031 11.832031 10.957031 11.78125 C 10.957031 11.652344 10.960938 11.527344 10.960938 11.398438 Z M 10.960938 11.398438 "/>
<path style=" stroke:none;fill-rule:nonzero;fill:rgb(92.156863%,82.352942%,87.843138%);fill-opacity:1;" d="M 5.839844 10 C 5.878906 10.121094 5.878906 10.121094 5.878906 10.238281 C 5.878906 10.359375 5.898438 10.417969 5.960938 10.519531 C 5.804688 10.449219 5.804688 10.449219 5.761719 10.359375 C 5.75 10.199219 5.746094 10.136719 5.839844 10 Z M 5.839844 10 "/>
<path style=" stroke:none;fill-rule:nonzero;fill:rgb(79.215688%,51.764709%,66.274512%);fill-opacity:1;" d="M 6.558594 11.761719 C 6.574219 11.761719 6.585938 11.761719 6.601562 11.761719 C 6.601562 11.878906 6.601562 11.996094 6.601562 12.121094 C 6.625 12.121094 6.652344 12.121094 6.679688 12.121094 C 6.691406 12.199219 6.707031 12.277344 6.71875 12.359375 C 6.667969 12.347656 6.613281 12.332031 6.558594 12.320312 C 6.558594 12.136719 6.558594 11.949219 6.558594 11.761719 Z M 6.558594 11.761719 "/>
<path style=" stroke:none;fill-rule:nonzero;fill:rgb(67.450982%,24.313726%,46.666667%);fill-opacity:1;" d="M 5.640625 10.160156 C 5.644531 10.1875 5.648438 10.210938 5.652344 10.238281 C 5.660156 10.265625 5.671875 10.292969 5.679688 10.320312 C 5.71875 10.332031 5.757812 10.347656 5.800781 10.359375 C 5.855469 10.425781 5.910156 10.492188 5.960938 10.558594 C 5.921875 10.578125 5.921875 10.578125 5.878906 10.601562 C 5.78125 10.539062 5.78125 10.539062 5.679688 10.441406 C 5.648438 10.289062 5.648438 10.289062 5.640625 10.160156 Z M 5.640625 10.160156 "/>
<path style=" stroke:none;fill-rule:nonzero;fill:rgb(95.686275%,89.803922%,92.941177%);fill-opacity:1;" d="M 8.839844 10.320312 C 8.867188 10.332031 8.894531 10.347656 8.921875 10.359375 C 8.871094 10.417969 8.820312 10.476562 8.773438 10.535156 C 8.722656 10.59375 8.683594 10.65625 8.640625 10.71875 C 8.613281 10.71875 8.585938 10.71875 8.558594 10.71875 C 8.617188 10.542969 8.703125 10.445312 8.839844 10.320312 Z M 8.839844 10.320312 "/>
<path style=" stroke:none;fill-rule:nonzero;fill:rgb(64.313728%,17.647059%,42.352942%);fill-opacity:1;" d="M 5.839844 9.921875 C 5.867188 9.933594 5.894531 9.945312 5.921875 9.960938 C 5.890625 9.992188 5.890625 9.992188 5.863281 10.027344 C 5.796875 10.128906 5.777344 10.203125 5.761719 10.320312 C 5.734375 10.320312 5.707031 10.320312 5.679688 10.320312 C 5.671875 10.210938 5.671875 10.210938 5.679688 10.078125 C 5.761719 9.984375 5.761719 9.984375 5.839844 9.921875 Z M 5.839844 9.921875 "/>
</g>
</svg>
